<svg xmlns="http://www.w3.org/2000/svg" xmlns:xlink="http://www.w3.org/1999/xlink" width="1080" zoomAndPan="magnify" viewBox="0 0 810 809.999993" height="1080" preserveAspectRatio="xMidYMid meet" version="1.0"><defs><g/></defs><path fill="#1b998b" d="M 104.726562 457.125 L 106.570312 458.953125 L 106.753906 459.136719 C 112.496094 465.082031 112.433594 474.65625 106.570312 480.519531 C 100.707031 486.386719 91.132812 486.445312 85.1875 480.707031 L 85 480.519531 L 83.15625 478.695312 L 78.132812 473.652344 C 72.207031 467.726562 72.207031 458.027344 78.132812 452.082031 C 84.058594 446.15625 93.777344 446.15625 99.703125 452.082031 Z M 206.464844 373.679688 L 208.246094 371.894531 L 229.097656 351.042969 C 235.023438 345.117188 235.023438 335.417969 229.097656 329.472656 C 223.152344 323.546875 213.453125 323.546875 207.53125 329.472656 L 188.726562 348.273438 L 186.675781 350.324219 L 184.894531 352.109375 L 174.109375 362.894531 C 168.183594 368.820312 168.183594 378.515625 174.109375 384.460938 L 184.894531 395.246094 L 186.820312 397.152344 L 207.671875 418.007812 C 213.597656 423.933594 223.296875 423.933594 229.242188 418.007812 C 235.167969 412.082031 235.167969 402.363281 229.242188 396.4375 L 208.390625 375.585938 Z M 78.992188 329.617188 L 78.992188 329.59375 C 84.917969 323.671875 94.636719 323.671875 100.5625 329.59375 L 228.957031 458.007812 C 234.902344 463.933594 234.902344 473.652344 228.957031 479.578125 C 223.03125 485.503906 213.332031 485.503906 207.386719 479.578125 L 78.992188 351.164062 C 73.066406 345.238281 73.066406 335.542969 78.992188 329.617188 Z M 78.808594 391.085938 C 84.734375 385.160156 94.433594 385.160156 100.378906 391.085938 L 167.484375 458.191406 C 173.410156 464.117188 173.410156 473.835938 167.484375 479.761719 C 161.539062 485.6875 151.84375 485.6875 145.917969 479.761719 L 93.429688 427.273438 L 78.808594 412.65625 C 72.882812 406.730469 72.882812 397.011719 78.808594 391.085938 Z M 78.808594 391.085938 " fill-opacity="1" fill-rule="evenodd"/><g fill="#f57811" fill-opacity="1"><g transform="translate(232.004142, 464.442158)"><g><path d="M 12.65625 0 L 12.65625 -130.21875 L 36.46875 -130.21875 L 36.46875 -18.609375 L 94.125 -18.609375 L 94.125 0 Z M 12.65625 0 "/></g></g></g><g fill="#f57811" fill-opacity="1"><g transform="translate(363.348262, 464.442158)"><g><path d="M 12.65625 0 L 12.65625 -130.21875 L 36.46875 -130.21875 L 36.46875 0 Z M 12.65625 0 "/></g></g></g><g fill="#f57811" fill-opacity="1"><g transform="translate(441.301285, 464.442158)"><g><path d="M 12.65625 0 L 12.65625 -130.21875 L 36.46875 -130.21875 L 97.671875 -38.515625 L 97.671875 -130.21875 L 121.484375 -130.21875 L 121.484375 0 L 97.671875 0 L 36.46875 -91.53125 L 36.46875 0 Z M 12.65625 0 "/></g></g></g><g fill="#f57811" fill-opacity="1"><g transform="translate(604.270763, 464.442158)"><g><path d="M 12.65625 0 L 12.65625 -130.21875 L 36.46875 -130.21875 L 36.46875 -77.578125 L 84.640625 -130.21875 L 114.03125 -130.21875 L 66.046875 -78.5 L 115.34375 0 L 86.125 0 L 48.921875 -60.28125 L 36.46875 -46.6875 L 36.46875 0 Z M 12.65625 0 "/></g></g></g></svg>